<?xml version="1.0" encoding="UTF-8" standalone="no"?>
<svg xmlns:rdf="http://www.w3.org/1999/02/22-rdf-syntax-ns#" xmlns="http://www.w3.org/2000/svg" height="32" width="178" version="1.1" xmlns:cc="http://creativecommons.org/ns#" xmlns:dc="http://purl.org/dc/elements/1.1/" viewBox="0 0 178.00001 32.000001">
 <metadata>
  <rdf:RDF>
   <cc:Work rdf:about="">
    <dc:format>image/svg+xml</dc:format>
    <dc:type rdf:resource="http://purl.org/dc/dcmitype/StillImage"/>
    <dc:title/>
   </cc:Work>
  </rdf:RDF>
 </metadata>
 <g transform="translate(-74.748 -397.47)">
  <g fill="#fff">
   <path style="" d="m79.305 405.61c2.08 0 3.8-1.56 3.8-3.64 0-2.12-1.72-3.68-3.8-3.68-2.12 0-3.8 1.56-3.8 3.68 0 2.08 1.68 3.64 3.8 3.64zm3.28 3.04h-6.48v19.4h6.48v-19.4z"/>
   <path style="" d="m107.52 399.65h-6.48v10.12c-1.44-0.92-3.2-1.48-5.32-1.48-5.24 0-9.64 4.32-9.64 10.08 0 5.8 4.4 10.16 9.64 10.16 2.12 0 3.88-0.56 5.32-1.48v1h6.48v-28.4zm-10.52 23.56c-2.64 0-4.56-2.12-4.56-4.84 0-2.64 1.92-4.8 4.56-4.8 1.44 0 2.84 0.44 4.04 1.84v6c-1.2 1.4-2.6 1.8-4.04 1.8z"/>
   <path style="" d="m131.09 417.93c0-5.84-4.28-9.72-9.92-9.72-6.2 0-10.32 4.24-10.32 10.12 0 5.92 4.24 10.16 10.6 10.16 4.8 0 8.52-2.52 9.44-6.52h-6.4c-0.56 0.88-1.6 1.4-2.96 1.4-2.48 0-3.84-1.36-4.36-3.12h13.84l-0.04-0.12c0.12-0.72 0.12-1.48 0.12-2.2zm-9.92-4.72c2.08 0 3.48 1.12 3.84 3.24h-7.92c0.48-1.96 1.88-3.24 4.08-3.24z"/>
   <path style="" d="m155.18 408.65h-6.48v1.04c-1.44-0.92-3.2-1.48-5.32-1.48-5.24 0-9.64 4.32-9.64 10.12 0 5.76 4.4 10.12 9.64 10.12 2.12 0 3.88-0.56 5.32-1.48v1.08h6.48v-19.4zm-10.52 14.48c-2.64 0-4.56-2.12-4.56-4.8s1.92-4.84 4.56-4.84c1.44 0 2.84 0.44 4.04 1.84v6c-1.2 1.4-2.6 1.8-4.04 1.8z"/>
   <path style="" d="m166.02 399.65h-6.48v28.4h6.48v-28.4z"/>
   <path style="" d="m173.84 405.61c2.08 0 3.8-1.56 3.8-3.64 0-2.12-1.72-3.68-3.8-3.68-2.12 0-3.8 1.56-3.8 3.68 0 2.08 1.68 3.64 3.8 3.64zm3.28 3.04h-6.48v19.4h6.48v-19.4z"/>
   <path style="" d="m180.33 421.37c0.4 5.16 4.52 7.28 9.6 7.28 5.04 0 9.08-2.08 9.08-6.56 0-3.44-2.4-5.2-6.04-5.88l-3.64-0.6c-1.52-0.28-2-0.88-2-1.52 0-0.76 0.76-1.4 2.44-1.4 1.8 0 3.16 0.68 3.28 2.16h5.76c-0.28-5.12-4.96-6.72-9.08-6.72-5.16 0-8.64 2.4-8.64 6.48 0 3.4 2.32 5.28 5.68 5.84l3.92 0.68c1.28 0.2 1.88 0.72 1.88 1.36 0 0.84-1.04 1.36-2.76 1.36-2.04 0-3.44-0.76-3.72-2.44l-5.76-0.04z"/>
   <path style="" d="m217.35 422.21c-1.44 0.28-2.52 0.48-3.44 0.48-1.92 0-3.04-0.96-3.04-2.92v-5.56h6.6v-5.56h-6.6v-6.6h-6.48v6.6h-3.8v5.56h3.8v5.76c0 5.24 3.12 8.68 7.8 8.68 1.92 0 3.36-0.16 5.88-0.96l-0.72-5.48z"/>
   <path style="" d="m224.7 405.61c2.08 0 3.8-1.56 3.8-3.64 0-2.12-1.72-3.68-3.8-3.68-2.12 0-3.8 1.56-3.8 3.68 0 2.08 1.68 3.64 3.8 3.64zm3.28 3.04h-6.48v19.4h6.48v-19.4z"/>
   <path style="" d="m242.07 423.01c-2.76 0-4.44-2.04-4.44-4.68s1.68-4.64 4.44-4.64c2 0 3.48 1.16 3.8 2.92h6.12c-0.44-5-4.56-8.4-9.92-8.4-6.12 0-10.6 4.24-10.6 10.12 0 5.92 4.48 10.16 10.6 10.16 5.36 0 9.48-3.4 9.92-8.4h-6.12c-0.32 1.76-1.8 2.92-3.8 2.92z"/>
  </g>
 </g>
</svg>
